<?xml version="1.0" standalone="no"?>
<!DOCTYPE svg PUBLIC "-//W3C//DTD SVG 20010904//EN"
 "http://www.w3.org/TR/2001/REC-SVG-20010904/DTD/svg10.dtd">
<svg version="1.0" xmlns="http://www.w3.org/2000/svg"
 width="818.000000pt" height="840.000000pt" viewBox="0 0 418.000000 440.000000"
 preserveAspectRatio="xMidYMid meet">

<g transform="translate(0.000000,440.000000) scale(0.100000,-0.100000)"
fill="#000000" stroke="none">
<path d="M410 3982 c0 -4 -2 -375 -4 -824 -4 -748 -2 -818 13 -831 9 -8 90
-61 181 -117 91 -56 203 -126 250 -156 46 -29 86 -51 88 -50 1 2 2 229 2 504
0 275 3 503 7 505 5 2 122 -68 260 -157 139 -88 278 -177 310 -196 31 -19 108
-68 172 -109 64 -41 178 -114 255 -162 l138 -88 77 48 c42 26 295 188 564 360
268 171 490 311 492 311 3 0 4 -230 3 -510 -2 -281 0 -510 4 -510 4 0 124 74
265 164 l258 163 3 831 2 831 -102 -64 c-94 -58 -773 -487 -1335 -843 -125
-79 -231 -142 -237 -140 -6 2 -198 121 -426 266 -416 264 -1022 646 -1164 734
-42 26 -76 44 -76 40z"/>
<path d="M1340 1825 c0 -250 -3 -455 -7 -455 -4 0 -41 22 -82 49 -81 51 -480
304 -696 440 -71 44 -134 81 -140 81 -15 0 -8 -621 8 -636 7 -7 89 -59 182
-116 94 -58 228 -142 298 -187 71 -44 130 -81 132 -81 3 0 423 -266 630 -399
66 -43 141 -90 166 -105 l47 -27 1 779 c2 739 1 779 -16 793 -10 9 -101 67
-203 131 -261 162 -304 188 -313 188 -4 0 -7 -205 -7 -455z"/>
<path d="M2760 2251 c-72 -45 -308 -189 -397 -244 l-83 -51 0 -784 0 -784 38
23 c20 13 51 33 69 44 43 27 199 127 368 233 77 49 241 153 365 232 124 78
293 184 375 235 83 51 174 107 203 125 l52 33 0 91 c1 50 3 188 6 307 4 154 2
219 -6 224 -6 3 -27 -3 -47 -15 -35 -20 -642 -404 -794 -501 -41 -27 -78 -49
-82 -49 -4 0 -7 205 -7 455 0 250 -3 455 -7 454 -5 0 -28 -13 -53 -28z"/>
</g>
</svg>
